<svg id="b5fed236-b6fe-4732-bb52-4e31bc8b8771" data-name="Layer 1" xmlns="http://www.w3.org/2000/svg" viewBox="0 0 500 500"><defs><style>.a71b3451-cec2-46db-805f-a06ff3cbe07b{fill:#383838;}.b1c8d2cb-d109-4a63-a020-a394b4e206f7{fill:#bc1622;}</style></defs><title>1-01</title><path class="a71b3451-cec2-46db-805f-a06ff3cbe07b" d="M451.13,172.89a58.75,58.75,0,0,0-3.82-12.62,48.9,48.9,0,0,0-14.89-19,54.2,54.2,0,0,0-13.53-7.52,59.69,59.69,0,0,0-11.46-3.16,66.45,66.45,0,0,0-11.67-1.18q-34.11-.06-68.23,0c-1,0-1.22-.22-1.21-1.21,0-10.26,0-20.53,0-30.8a13.48,13.48,0,0,0-.34-2.79,24.23,24.23,0,0,0-9.13-14.46,22.07,22.07,0,0,0-13.63-4.87q-53.2-.06-106.4,0a21.26,21.26,0,0,0-9,2.15A23.85,23.85,0,0,0,177,87.35a21.75,21.75,0,0,0-3.08,10.93c0,9.93,0,19.87,0,29.81,0,1.11-.28,1.33-1.35,1.32q-34.36,0-68.73,0a53.7,53.7,0,0,0-7.49.46A67.25,67.25,0,0,0,85,132.36a54.81,54.81,0,0,0-16,7.94,48.33,48.33,0,0,0-11.64,11.93,51.85,51.85,0,0,0-6.74,14.41A56.37,56.37,0,0,0,48,182.88q-.1,90.62-.06,181.22c0,6.36.12,12.69,1.49,18.95a54.27,54.27,0,0,0,4.81,13.79,47.42,47.42,0,0,0,10.79,14,56.17,56.17,0,0,0,10,7,57,57,0,0,0,12,4.79A57.37,57.37,0,0,0,102.1,425q74,.09,148.06,0H397.47a51.11,51.11,0,0,0,8.66-.82,66.23,66.23,0,0,0,12.63-3.4,54.26,54.26,0,0,0,18-11.32,48.27,48.27,0,0,0,3.92-4.4,46.2,46.2,0,0,0,5.78-9,61,61,0,0,0,5.82-24.15q.1-91.35,0-182.71A82.34,82.34,0,0,0,451.13,172.89Zm-260.48-73a9.14,9.14,0,0,1,1.55-5.37A7,7,0,0,1,197,91.74a35.44,35.44,0,0,1,6.91-.27q48.65,0,97.28,0a8.87,8.87,0,0,1,6.17,2.06,7,7,0,0,1,2.28,5.3c0,9.86,0,19.71,0,29.56,0,1-.43,1-1.17,1q-29.18,0-58.36,0t-58.25,0c-1,0-1.28-.22-1.27-1.27C190.64,118.71,190.59,109.27,190.65,99.84ZM435.58,367.4a51.68,51.68,0,0,1-2.68,17.23A32.77,32.77,0,0,1,423.26,399a36.56,36.56,0,0,1-16.1,7.78,64.33,64.33,0,0,1-9.9,1.3c-5.59.36-11.18.18-16.78.18q-137.51,0-275,0c-8.29,0-16.32-1.61-23.6-5.85A31.93,31.93,0,0,1,70.3,391a41.79,41.79,0,0,1-4.86-13.88,32.93,32.93,0,0,1-.57-5.73c-.56-61.46-.1-122.93-.2-184.39a48.07,48.07,0,0,1,3.51-19.23A33.43,33.43,0,0,1,73.51,159c5.06-5.9,11.55-9.3,19-11.16a55.79,55.79,0,0,1,13.58-1.52q72,0,144.06,0,73.27,0,146.56,0a47.37,47.37,0,0,1,12.94,2,36.41,36.41,0,0,1,13,6.6,32.14,32.14,0,0,1,9.53,13,41.84,41.84,0,0,1,2.68,9.59,35.59,35.59,0,0,1,.57,5.48C435.94,244.47,435.48,305.94,435.58,367.4Z"/><path class="b1c8d2cb-d109-4a63-a020-a394b4e206f7" d="M333.31,300.26a11.26,11.26,0,0,1-4.72,9,12.45,12.45,0,0,1-8.08,2.53c-10.77-.07-21.54,0-32.31,0-1,0-1.31.18-1.3,1.26q.06,16.77,0,33.55c0,5.68-4.52,10.25-9.9,11.38a16,16,0,0,1-3.31.23c-16.13,0-32.26,0-48.4,0a12.28,12.28,0,0,1-12-10.68,30.86,30.86,0,0,1-.21-4.06q0-15.22,0-30.43c0-1-.21-1.24-1.21-1.23-11.18,0-22.37.07-33.55,0a11.26,11.26,0,0,1-8.9-4.66,12.27,12.27,0,0,1-2.55-8.07c.09-8.06,0-16.13,0-24.19,0-8.32,0-16.63,0-25A12.08,12.08,0,0,1,175,238.65a12.82,12.82,0,0,1,4.55-.75c10.77,0,21.54,0,32.31,0,1,0,1.22-.22,1.22-1.21,0-10.93-.14-21.87,0-32.8a12.16,12.16,0,0,1,10.28-12.1,18.91,18.91,0,0,1,3.55-.33c15.64,0,31.27,0,46.9,0A12.91,12.91,0,0,1,283.3,195a12.07,12.07,0,0,1,3.65,7.24,92.71,92.71,0,0,1,.21,10.54c0,8,0,16,0,24,0,.93.22,1.16,1.16,1.15q16,0,32.05,0A12.76,12.76,0,0,1,333.27,248a5.7,5.7,0,0,1,.06,1.24Q333.33,274.75,333.31,300.26Z"/></svg>