<svg id="b31e392d-0cc2-48b3-8896-55a90a70a913" data-name="Layer 1" xmlns="http://www.w3.org/2000/svg" viewBox="0 0 500 500"><defs><style>.a4415acd-8e50-4785-9ba9-b8c295b307ab{fill:#bd1622;}.add64fec-f3bd-4408-9e84-8619775907e9{fill:#383838;}.a7a9c057-9d0d-490e-9bf8-d1ba72100691{fill:#7e7e7e;}</style></defs><title>2-01</title><path class="a4415acd-8e50-4785-9ba9-b8c295b307ab" d="M432.05,126.75q-14.85-6.39-29.63-12.92-29.79-13-59.55-26.12Q320.31,77.83,297.74,68q-21.94-9.6-43.88-19.26a9.58,9.58,0,0,0-8.22.05Q221.9,59.21,198.1,69.6L133.65,97.81l-66,28.93a7.89,7.89,0,0,0-5.17,7.88c.12,9.61,0,19.21.11,28.81.14,15,0,30,.07,45a2.14,2.14,0,0,1-1.52,2.37,23.82,23.82,0,0,0-13.87,15.72c-.35,1.18-.34,2.48-1.12,3.52v6.49a5.91,5.91,0,0,1,.77,2.24,24.27,24.27,0,0,0,8.36,13.5,23.41,23.41,0,0,0,16,5.36,22.5,22.5,0,0,0,15.06-5.93,23.66,23.66,0,0,0,7.8-23c-1.52-8.23-6.29-14.15-13.87-17.69a2,2,0,0,1-1.42-2.22q0-30.84,0-61.66c0-.48-.18-1,.31-1.55,2.72.88,5.48,1.79,8.25,2.67l47.09,15c3.5,1.12,7,2.29,10.5,3.37.88.27,1.32.64,1.17,1.59a7.22,7.22,0,0,0,0,1.14v68.34a10.07,10.07,0,0,0,1.6,5.94c1.12,1.64,2.82,2.55,4.42,3.56a152.31,152.31,0,0,0,37.52,16.45,199.34,199.34,0,0,0,25.92,5.81A215.79,215.79,0,0,0,240.39,272a196,196,0,0,0,21.13-.16c4.74-.3,9.47-.66,14.19-1.17,5.6-.61,11.15-1.51,16.67-2.6a182.26,182.26,0,0,0,31.18-9A137.4,137.4,0,0,0,349,246.22a9.17,9.17,0,0,0,4.39-8.3q-.06-34.26,0-68.52c0-2.31,0-2.33,2.27-3.06l46-14.71L431,142.25a8.75,8.75,0,0,0,5-3.61A8.17,8.17,0,0,0,432.05,126.75ZM70.28,241.66c-3.37-.06-8-3.38-7.79-8.44A8.25,8.25,0,0,1,70.72,225a8.43,8.43,0,0,1,7.83,8.43C78.61,237,75.31,241.74,70.28,241.66ZM171,239.05c.11-.64.72-.68,1.14-.89a164.45,164.45,0,0,1,27.94-10.36,178.3,178.3,0,0,1,21.54-4.49c4-.59,8-1,12.07-1.34,5.5-.45,11-.74,16.52-.71a199.3,199.3,0,0,1,28.75,2.26,184.37,184.37,0,0,1,29.7,7.07,160.14,160.14,0,0,1,18.87,7.58c.38.18.87.25,1.15.87C282.76,261.79,216.42,261.59,171,239.05Zm166.39-16.4a5.73,5.73,0,0,1-.19,2.1c-1.52-.68-2.92-1.27-4.28-1.92a168.09,168.09,0,0,0-31.4-11,190.71,190.71,0,0,0-23.35-4.32c-4.09-.49-8.19-.87-12.29-1.17a193.14,193.14,0,0,0-21.51-.57c-5,.19-10.12.4-15.17.91-5.3.54-10.58,1.15-15.83,2a190.19,190.19,0,0,0-24.8,5.78,172,172,0,0,0-24.8,9.73c-.33.16-.65.42-1.08.27a4.33,4.33,0,0,1-.14-1.86c0-20.81,0-41.61-.05-62.42a3.1,3.1,0,0,1,1.84-3.11,150.24,150.24,0,0,1,30.39-12.6,190.88,190.88,0,0,1,26.71-5.89c4-.59,7.92-1,11.9-1.35a206.64,206.64,0,0,1,21.69-.71c5.64.06,11.26.51,16.88,1.09A178.8,178.8,0,0,1,300.83,143a152.19,152.19,0,0,1,22.39,8c4.18,1.88,8.2,4,12.25,6.17a3.32,3.32,0,0,1,1.94,3.46Q337.32,191.63,337.37,222.65Zm66.53-88.71-34.26,11q-7.69,2.48-15.41,4.92c-1.52.48-1.54.46-2.44-.76a9.26,9.26,0,0,0-2.18-2.1,124.56,124.56,0,0,0-30.14-15.31,177.61,177.61,0,0,0-32.6-8.17c-5.26-.82-10.53-1.48-15.84-1.92-4.55-.38-9.1-.56-13.66-.81-3.88-.2-7.75-.33-11.61-.16-5.63.24-11.27.35-16.89.93-4.53.46-9.06.93-13.58,1.57-5.34.76-10.62,1.78-15.87,3a159.89,159.89,0,0,0-25.92,8.19,122.34,122.34,0,0,0-23.11,12.46,7.64,7.64,0,0,0-2.72,2.61c-.44.84-.94.94-1.85.63-4.33-1.45-8.69-2.8-13-4.19L95.42,133.86c-.48-.15-1-.35-1.77-.65a25.34,25.34,0,0,1,4.85-2.33c7.6-3.38,15.23-6.68,22.85-10l30-13.12c7.55-3.31,15.1-6.65,22.66-10q14.83-6.5,29.67-13Q216.87,79.07,230,73.26c6.16-2.7,12.33-5.38,18.48-8.11a3.07,3.07,0,0,1,2.71,0q19.79,8.72,39.6,17.36l31.39,13.77,33,14.41,25.29,11.1Q392.26,127,404,132.13a4,4,0,0,1,1.72,1A4.58,4.58,0,0,1,403.9,133.94Z"/><path class="add64fec-f3bd-4408-9e84-8619775907e9" d="M452.88,391.17c-2.48-7.48-7.39-12.42-15.06-14.49-3.24-.88-6.47-1.78-9.72-2.61-.69-.18-1-.44-.88-1.16a46.4,46.4,0,0,1,5.28-16.75A31.35,31.35,0,0,1,444,344a7.36,7.36,0,0,0,3.77-7,7.65,7.65,0,0,0-4.15-6.81,12.64,12.64,0,0,0-3-1.1q-19.75-5.16-39.52-10.32a7.84,7.84,0,0,0-6.22.65c-3.83,2.31-4.53,5-4,8.7.48,3.35,2.75,5.35,6,6.21,5.32,1.44,10.65,2.81,16,4.2l10.26,2.69c-6.64,8.41-10.13,17.94-11.63,28.25a5.5,5.5,0,0,1-.72-.09l-32.83-8.88-29-7.84c-12.48-3.37-24.95-6.71-37.42-10.1a31.36,31.36,0,0,0-7.84-1.3,28.68,28.68,0,0,0-15.59,4.13c-7.16,4.35-11.93,10.48-13.8,18.77a61.27,61.27,0,0,0-.69,6.6,9.42,9.42,0,0,1-7.88,8.15,65.34,65.34,0,0,1-6.86.12c-.56,0-.81-.23-.79-.8s0-.89,0-1.33q0-16,0-32.07a28.9,28.9,0,0,1,.49-5.1,36,36,0,0,1,12.16-21.62c9.83-8.39,21.13-11,33.68-7.91,8.24,2,16.43,4.29,24.65,6.39a8.06,8.06,0,1,0,3.73-15.68c-7.65-2-15.33-3.93-23-6a60.72,60.72,0,0,0-12.89-2.09,48.12,48.12,0,0,0-11.9,1,52.52,52.52,0,0,0-33.39,21.5,9,9,0,0,1-1.71,2.22c-6.49-9.82-15-17-25.91-21.16a51.71,51.71,0,0,0-28.73-2.61c-5.16,1-10.2,2.54-15.28,3.86l-38.05,9.94q-21.14,5.54-42.27,11.08Q79,324,58.31,329.42a8.19,8.19,0,0,0-5.21,3.89c-1.88,3.24-1.21,8.59,2.78,10.84a21.8,21.8,0,0,1,3.33,2.2,35.56,35.56,0,0,1,10.46,14.74,46.67,46.67,0,0,1,2.82,11.21c.2,1.5.15,1.53-1.29,1.93-3,.83-6,1.61-9,2.44-8.2,2.25-13.28,7.55-15.36,15.76a2.57,2.57,0,0,1-.72,1.44V400a1,1,0,0,1,.36.72,2.61,2.61,0,0,1,0,.4c0,.14,0,.28,0,.42.66,4.22,1.42,8.46,3.53,12.2a21.44,21.44,0,0,0,25,10.39q18.61-5,37.2-10.08,33.24-9,66.49-18c4.06-1.1,4.05-1,6.19,2.72A57.7,57.7,0,0,0,213.73,424a59.64,59.64,0,0,0,22.35,4.3c8.77.11,17.55.07,26.33,0a67.25,67.25,0,0,0,17.73-2.24,58.09,58.09,0,0,0,35.94-29.05c1.19-2.2,1.25-2.14,3.59-1.5q23.47,6.4,47,12.73c15,4.08,30.07,8.19,45.13,12.2,5.47,1.46,10.84,3.31,16.44,4.23,9.58,1.58,19.85-4.64,23-13.8A43.57,43.57,0,0,0,453.47,400v-6.11C452.81,393.08,453.18,392.07,452.88,391.17ZM89.49,338l39.33-10.31,52.56-13.77c5.27-1.38,10.51-2.87,15.82-4.05a35.45,35.45,0,0,1,28.59,5.57c8.84,6,14,14.5,15.73,25a30,30,0,0,1,.41,5.11c0,10.43,0,20.87,0,31.3,0,.45,0,.89,0,1.34s-.14.86-.73.85a50.24,50.24,0,0,1-7.05-.13c-3.57-.58-7.81-4.06-7.85-9.06a27.29,27.29,0,0,0-7.23-18.51,29.91,29.91,0,0,0-16-9.34c-5.26-1.22-10.4-.62-15.54.81-11.41,3.15-22.85,6.21-34.28,9.3Q133,357.57,112.69,363c-7.46,2-14.91,4.05-22.36,6.07-2,.54-1.92.52-2.24-1.38A56.31,56.31,0,0,0,78,343c-.3-.41-.59-.83-.87-1.25a1.91,1.91,0,0,1-.11-.47Zm-23.08,54.3c3.53-1,7.08-2,10.62-2.92q14.5-3.9,29-7.76l36.88-9.92q17.9-4.82,35.77-9.66c5.26-1.43,10.52-2.83,15.77-4.26,7.38-2,14.33,3.65,15.52,10.13.38,2.06.25,4.15.6,6.22a26.09,26.09,0,0,0,21.35,20.82,36,36,0,0,0,5.49.43c8.59,0,17.18,0,25.77,0a26.3,26.3,0,0,0,10.4-1.88c8.86-3.84,14.3-10.45,16-20,.32-1.81.07-3.66.38-5.49a13.3,13.3,0,0,1,10.77-10.43c2.71-.44,5.14.38,7.62,1q26.16,7,52.29,14.05,25.41,6.84,50.81,13.71c7.16,1.92,14.31,3.86,21.48,5.73,3.75,1,5.31,4.43,4.23,7.24a31.07,31.07,0,0,0-1.24,4.78,5.15,5.15,0,0,1-6.6,4c-7.86-2.22-15.76-4.3-23.65-6.43q-21.92-5.94-43.83-11.86-23.57-6.37-47.14-12.75a10,10,0,0,0-2.81-.35,7.64,7.64,0,0,0-7.65,5.69,42.17,42.17,0,0,1-33.83,28.81,31.3,31.3,0,0,1-5.11.37c-10.06,0-20.11,0-30.16,0a40.06,40.06,0,0,1-23.2-7.37,40.9,40.9,0,0,1-16.18-21.73,8,8,0,0,0-5.52-5.55,8.7,8.7,0,0,0-4.72,0l-42.17,11.45q-20.26,5.49-40.54,10.94-15.67,4.23-31.35,8.5a7,7,0,0,1-3,.5,5.07,5.07,0,0,1-4.38-4c-.51-1.83-1-3.67-1.43-5.51A5.19,5.19,0,0,1,66.41,392.27Z"/><path class="a7a9c057-9d0d-490e-9bf8-d1ba72100691" d="M46.79,401.2a1,1,0,0,1-.65-.46V400C47.08,400,46.69,400.73,46.79,401.2Z"/><path d="M373.75,317.84c0,4.68-3.44,8.26-8,8.11s-7.75-3-8-8c-.25-4.39,3.56-7.9,8.11-8C369.73,309.78,374.19,313.31,373.75,317.84Z"/></svg>