<svg id="abdd2c9f-230c-4c3d-a207-8c82bc4252dd" data-name="Layer 1" xmlns="http://www.w3.org/2000/svg" viewBox="0 0 500 500"><defs><style>.fb7366e0-5375-44af-b959-d2f85913c822{fill:#bd1622;}.ec61e414-f9ac-4f32-872c-e42076b29414{fill:#383838;}</style></defs><title>3-01</title><path class="fb7366e0-5375-44af-b959-d2f85913c822" d="M304.66,136a5.79,5.79,0,0,0-.69-2.91,6.6,6.6,0,0,0-6.69-3.14,6.3,6.3,0,0,0-5.28,5.83c-.12,1.2-.17,2.41-.27,3.61a70.08,70.08,0,0,1-8.63,28.35,72.63,72.63,0,0,1-37.6,33.08,4.87,4.87,0,0,1-2.52.33,181,181,0,0,0-21.68-1.6c-3.23,0-6.46,0-9.69.18-5.17.25-10.32.63-15.45,1.29a8.78,8.78,0,0,1-4.71-.55,74.76,74.76,0,0,1-24.08-16,73,73,0,0,1-12.68-86.71,74.63,74.63,0,0,1,15.5-19.55,72.61,72.61,0,0,1,42.55-18.42,76.59,76.59,0,0,1,14.12.2,71.31,71.31,0,0,1,23.35,6.59,73.07,73.07,0,0,1,31.2,28.17c1.09,1.77,2,3.66,3.09,5.44a6.21,6.21,0,0,0,6.7,3,6.35,6.35,0,0,0,4.38-9.39,81.66,81.66,0,0,0-13.41-19.37,85.48,85.48,0,0,0-59-27.62,83.57,83.57,0,0,0-10.49.17,85.93,85.93,0,0,0-23.57,5,83.91,83.91,0,0,0-28.25,17.24,85.94,85.94,0,0,0-19.86,27,88.13,88.13,0,0,0-8.1,35.91c0,1.82.17,3.63.23,5.44a71.61,71.61,0,0,0,1.07,9.81,85,85,0,0,0,8.68,25.47,86.49,86.49,0,0,0,25.3,29.23c1.45,1.07,3,2.07,4.63,3.25-.65.22-1.07.38-1.49.51-3.22,1-6.46,1.85-9.65,2.91-4.63,1.52-5.09,6.68-3.3,9.62a6.69,6.69,0,0,0,7.26,2.57,168.11,168.11,0,0,1,49.82-8.62,162.82,162.82,0,0,1,19.75.78c5.35.55,10.66,1.3,15.93,2.3a183.75,183.75,0,0,1,21,5.5c3.37,1.07,7.08-.7,7.91-4s0-6.51-3.79-8.11a30.2,30.2,0,0,0-2.88-.92l-8.26-2.46a4.07,4.07,0,0,1,1.64-1.36,85.68,85.68,0,0,0,17.42-15.56A80.75,80.75,0,0,0,290,181a1.67,1.67,0,0,1,.55-.57h0c6-9.38,10-20.93,10.46-22.3a.15.15,0,0,1,0-.08l0-.06a82.17,82.17,0,0,0,2.51-10.55A60,60,0,0,0,304.66,136Z"/><path class="ec61e414-f9ac-4f32-872c-e42076b29414" d="M456.37,293.87a12.5,12.5,0,0,0,0-1.62c-1.47-10.09-6.77-17.1-16.58-20.39q-8.31-2.79-16.69-5.39a8.4,8.4,0,0,1-6-6,109.09,109.09,0,0,0-9.4-21.41,119.78,119.78,0,0,0-17.37-23.23,1.86,1.86,0,0,1-.55-1.94,156.46,156.46,0,0,0,3.41-26.32,105.59,105.59,0,0,0-.73-19.95,33.59,33.59,0,0,0-3.58-11.49,12.87,12.87,0,0,0-8.64-6.7,27.51,27.51,0,0,0-10-.15,103.23,103.23,0,0,0-17.8,4.28,281.61,281.61,0,0,0-26.38,10c-4.9,2.11-9.91,4-14.54,6.69h0c-7.09,4.54-9.69,14.39-10.63,20.14a.78.78,0,0,1,0,.16c-.19,1.42-.35,2.85-.48,4.28a70.76,70.76,0,0,0,1,21.88c2.41,10.86,7.55,20.11,16.34,27.12a50.37,50.37,0,0,0,23,10.23,52,52,0,0,0,21.2-.44,26.94,26.94,0,0,0,17.56-12.23,77.64,77.64,0,0,0,5.82-11.81c.36.36.6.59.81.84,1.05,1.32,2.12,2.62,3.14,4A100.12,100.12,0,0,1,405,264.56c2.19,6.84,6.49,11.53,13.3,13.81,5.87,1.95,11.79,3.75,17.66,5.69a10.77,10.77,0,0,1,7.61,10.54q0,14.58,0,29.17a10.46,10.46,0,0,1-.35,3,10.75,10.75,0,0,1-7.39,7.64c-9.53,3.09-19.07,6.14-28.6,9.23a19.18,19.18,0,0,0-7.5,4.6,29.93,29.93,0,0,0-4.44,6.23,112.25,112.25,0,0,1-19.33,23.47,135.92,135.92,0,0,1-15.29,12.21,138.61,138.61,0,0,1-15.93,9.54,10.43,10.43,0,0,0-5.89,7.93c-1.1,6.15-2.33,12.27-3.48,18.41-1.79,9.5-3.55,19-5.34,28.5-.47,2.45-1.23,3-3.7,3H298.37c-.34,0-.68,0-1,0a2.5,2.5,0,0,1-2.48-2c-.16-.58-.26-1.18-.37-1.77-1.54-8.19-3.09-16.37-4.59-24.56a10.06,10.06,0,0,0-11.67-8.58c-2.25.36-4.52.56-6.78.88a218.1,218.1,0,0,1-26.9,2c-6.33.09-12.66.1-19-.33-4.82-.33-9.63-.65-14.44-1.22-6.9-.83-11,3.59-11.85,8.64-1.41,8.07-3,16.11-4.52,24.16-.37,2-1.27,2.8-3.28,2.81q-14.38,0-28.75,0c-2,0-2.78-.68-3.18-2.65-.61-3-1.14-5.93-1.71-8.9-2.26-11.67-4.6-23.32-6.74-35a11.81,11.81,0,0,0-6.48-8.89,117.83,117.83,0,0,1-31.7-24.4,104.57,104.57,0,0,1-18-27c-7.17-15.5-10.16-31.93-10.6-48.9-.08-2.82.09-5.65.19-8.47a136.83,136.83,0,0,1,2.18-20,111.57,111.57,0,0,1,9.4-28.87,104.38,104.38,0,0,1,26.9-34.22,113.21,113.21,0,0,1,17.37-12.11c3.39-1.91,3.7-6.33,2.45-8.64a6.4,6.4,0,0,0-8.5-2.69c-.66.32-1.29.72-1.92,1.1a126.57,126.57,0,0,0-31.71,26.36A112.69,112.69,0,0,0,85.05,238a123.13,123.13,0,0,0-9.74,27.52c-.73,3.21-1.31,6.44-1.89,9.68-.08.43.06,1-.57,1.15s-1.16-.13-1.17-1.07a29.67,29.67,0,0,0-1.14-8c-2.44-8.32-7.06-15-15.1-18.72a16.36,16.36,0,0,0-15.15.19c-5.65,3-9,7.76-10.68,13.78a14,14,0,0,0,2.87,13.08,21.2,21.2,0,0,0,5.66,4.83,47.15,47.15,0,0,0,9,4c2.57.89,5.24,1.45,7.89,2.21a5.18,5.18,0,0,1-.3.67c-6.13,8-14.08,12.72-24.29,13.3a6.33,6.33,0,0,0-6.15,5.6c-.34,3.88,1.62,6.7,5.18,7.52a18.5,18.5,0,0,0,5.8,0,34.64,34.64,0,0,0,13.39-4.14A48.84,48.84,0,0,0,62.06,298.7a37.52,37.52,0,0,0,5.64-7.85c1.06-2.05,1.07-2.05,3.32-1.82.31,0,.67-.1.85.23a193.94,193.94,0,0,0,.27,22.88,144.49,144.49,0,0,0,3.19,20.47,119.3,119.3,0,0,0,13.29,33.66A117.76,117.76,0,0,0,110,393a135.12,135.12,0,0,0,19.25,15c2.56,1.64,5.13,3.24,7.82,4.64a3.05,3.05,0,0,1,1.78,2.45c.2,1.4.51,2.78.77,4.16q1.94,10.2,3.88,20.39c1.17,6.13,2.38,12.26,3.58,18.39a15.51,15.51,0,0,0,15.32,12.41c10-.07,20,0,30,0a15.36,15.36,0,0,0,14.17-10.17,59.24,59.24,0,0,0,1.67-7.67q1.63-8.3,3.15-16.62c.17-.91.43-.95,1.3-.87,7.5.72,15,1.22,22.54,1.27,4.5,0,9,.12,13.53-.18,3.62-.23,7.25-.29,10.88-.54,6-.41,12-1.09,18-1.89.22,1.09.45,2.13.65,3.18,1.35,7.13,2.58,14.27,4.06,21.37a15.24,15.24,0,0,0,14.92,12.12c10.05,0,20.11.09,30.16,0,6.1-.07,10.62-3,13.53-8.35a20.93,20.93,0,0,0,1.83-6.36c1.55-8.52,3.19-17,4.81-25.53,1.15-6.07,2.34-12.13,3.47-18.2a1.76,1.76,0,0,1,1.06-1.56,13.89,13.89,0,0,0,1.4-.79,149.3,149.3,0,0,0,37-28A110.89,110.89,0,0,0,406,361.37a13.27,13.27,0,0,1,8.34-6.63c8.46-2.45,16.8-5.27,25.19-8a23.79,23.79,0,0,0,16.84-22.92C456.33,313.85,456.37,303.86,456.37,293.87ZM380.72,180.61c-.37,14.9-2.18,28.43-6.43,41.58a64.3,64.3,0,0,1-4.52,10.56,20.58,20.58,0,0,1-4.18,5.42,14.12,14.12,0,0,1-5.75,2.81,29.79,29.79,0,0,1-9.54,1.26c-9.62-.22-18.41-3-25.77-9.45A32.76,32.76,0,0,1,315.05,218a49.92,49.92,0,0,1-2.25-18.31,76.24,76.24,0,0,1,1.8-13.35,7.47,7.47,0,0,1,4.28-5.5q11.14-5.2,22.61-9.68a186.62,186.62,0,0,1,25.86-8.39,35.13,35.13,0,0,1,8-1.12c2.18,0,2.31.14,3.07,2.16a35.57,35.57,0,0,1,1.95,10.25A53.19,53.19,0,0,1,380.72,180.61ZM58.44,274.22a56.68,56.68,0,0,1-11.64-3.57,13.38,13.38,0,0,1-3.57-2.23c-1.41-1.28-1.6-2.17-.82-3.89a12.6,12.6,0,0,1,2.28-3.31,4.23,4.23,0,0,1,5.13-1.1c3.36,1.4,5.44,4.05,7.06,7.16a20.19,20.19,0,0,1,1.82,5.93A1.08,1.08,0,0,1,58.44,274.22Z"/><path class="ec61e414-f9ac-4f32-872c-e42076b29414" d="M244.83,143.73a19.72,19.72,0,0,0-8.68-13.08,43.19,43.19,0,0,0-9.38-4.66c-1.62-.59-1.62-.61-1.62-2.27q0-9.51,0-19a2.36,2.36,0,0,1,.23-1.56c3.85.18,7.27,1.71,10.65,3.4,2.54,1.28,4.74.56,6.2-1.89a10,10,0,0,0,1-2.64,4.4,4.4,0,0,0-1.08-4.28,9.62,9.62,0,0,0-3.47-2.38,34.87,34.87,0,0,0-10.73-2.53c-.86-.09-1.9.37-2.52-.34s-.18-1.69-.24-2.55c-.12-1.71-1.52-2.83-3.53-2.79s-3.15,1.05-3.22,2.85c0,.93,0,1.86,0,2.82a46.68,46.68,0,0,0-6.21,1.29c-4.55,1.4-8.62,3.6-11.35,7.62-4.09,6-4.49,12.57-2.27,19.28,1.57,4.72,5.12,7.8,9.41,10.09a55.35,55.35,0,0,0,8.9,3.79,1.83,1.83,0,0,1,1.55,2.09c-.06,7.56,0,15.12,0,22.68a2.41,2.41,0,0,1-.24,1.59,21.1,21.1,0,0,1-12-5.1c-1.14-.94-2.25-1.93-3.46-2.77a3.75,3.75,0,0,0-4.82.42c-3.17,3.1-3.46,6.64-.28,10.38a20.07,20.07,0,0,0,5.91,4.5,35.42,35.42,0,0,0,12.12,3.5c.9.13,2.15-.42,2.64.37s.12,1.82.16,2.76a3,3,0,0,0,3.13,3,3.35,3.35,0,0,0,3.61-2.78c.12-1.2-.52-2.75.31-3.5s2.26-.61,3.44-.87c.27-.06.54-.1.79-.18,6.84-2.11,11.9-6.19,14.25-13.13A27.22,27.22,0,0,0,244.83,143.73Zm-25.81-21a1,1,0,0,1-1.14,0,27.38,27.38,0,0,1-5.52-2.89,8.72,8.72,0,0,1-3.65-8.63c.42-3.39,2.54-5.52,5.66-6.7a12.13,12.13,0,0,1,4.65-1.09ZM233,155.18c-1.57,3.48-4.66,5-8.38,5.78V138.3C233.24,140.8,235.84,148.73,233,155.18Z"/><path class="fb7366e0-5375-44af-b959-d2f85913c822" d="M366.67,297.8a20.61,20.61,0,0,1-20.86-20.05A6.46,6.46,0,0,1,355,271.4a5.85,5.85,0,0,1,3.5,5c.21,2.39.72,4.62,2.57,6.36a7.41,7.41,0,0,0,8.2,1.71,7.33,7.33,0,0,0,5-6.9c.17-3.6,1.89-5.85,5.06-6.64a6.26,6.26,0,0,1,7.76,5.78,20.52,20.52,0,0,1-16.5,20.74A14.57,14.57,0,0,1,366.67,297.8Z"/></svg>