<svg id="bed131c2-0dc9-47f8-8d14-f0f851192910" data-name="Layer 1" xmlns="http://www.w3.org/2000/svg" viewBox="0 0 500 500"><defs><style>.a3abcc84-380c-4a8a-9b9b-af184c691d2a{fill:#bd1622;}.b603e36d-6275-4b11-a612-db6fba5c8892{fill:#383838;}</style></defs><title>4-01</title><path class="a3abcc84-380c-4a8a-9b9b-af184c691d2a" d="M365.91,48.37c-1.7-.87-3.56-1.21-5.27-2h-6.11a15.78,15.78,0,0,0-9.23,4.07c-9.37,8.69-8.15,22.9,2.72,29.68,2.28,1.42,3.32,2.9,2.9,5.46a2.54,2.54,0,0,0,0,.39c0,2.47-.12,2.58-2.59,2.58H301a19.51,19.51,0,0,0-3.42.19,7,7,0,0,0-6.17,6.72c-.09,1-.05,1.9-.05,2.86v73.44c0,2.35-.08,2.43-2.14,1.41-9.88-4.84-19.85-9.49-29.77-14.22a4.46,4.46,0,0,1-2.9-4.7q.12-34.73,0-69.44a4.43,4.43,0,0,1,2.48-4.38c7.78-4.61,11.19-12.81,8.65-21.23-2.17-7.23-7-11.8-14.7-12.84h-6.1c-.11.07-.22.17-.34.17h-.06c-7.76.3-14.58,8.38-15,16.4s3.08,13.83,9.85,17.83c1.18.7,2,1.38,2,2.92-.3,7.56.38,15.12.37,22.68,0,13,0,26,0,38.92,0,3.18,0,6.35-.26,9.53a4.29,4.29,0,0,1-2.78,4c-10,4.81-20,9.43-29.93,14.34q-.51.24-1.05.45c-.71.3-1.09.11-1.11-.7,0-.51,0-1,0-1.53V98.16c0-1,0-1.91-.06-2.86a7.4,7.4,0,0,0-2.24-4.72c-1.87-1.82-4.19-2-6.56-2q-23.67,0-47.32,0a18.41,18.41,0,0,1-2.1,0c-.53-.06-1.05-.22-1.13-.83a16.31,16.31,0,0,1,0-5.31c.25-1.19,1.56-1.4,2.45-2,7.26-4.54,10.78-12.45,8.72-20.28s-6.82-12.6-15-13.76h-6.1c-.28.45-.78.34-1.19.45a17.78,17.78,0,0,0-8.65,4.93,18,18,0,0,0,5.71,29.1,1.63,1.63,0,0,1,1.15,1.81c0,4.2,0,8.4,0,12.6a6,6,0,0,0,2.1,4.7,6.6,6.6,0,0,0,4.6,1.45q25.18,0,50.37,0c.45,0,.9,0,1.34,0,.72-.05,1,.25,1,1,0,1.46.11,2.92.11,4.38q0,36.35-.12,72.69a2.41,2.41,0,0,0,0,.38c.16.85-.28,1.28-1,1.59-1.17.5-2.31,1-3.46,1.6-6.81,3.25-13.62,6.53-20.44,9.76a6.35,6.35,0,0,0-4,6.3q0,48.09,0,96.17a6.33,6.33,0,0,0,3.94,6.33c4.38,2,8.72,4.13,13.07,6.22l23.85,11.46q14.68,7,29.39,14,5.07,2.42,10.15,4.81a6.21,6.21,0,0,0,5.51,0c2.35-1.1,4.7-2.22,7.05-3.34q7.13-3.42,14.24-6.84c7.33-3.51,14.65-7,22-10.51a6.05,6.05,0,0,0,2.76-8.1,5.9,5.9,0,0,0-8.05-2.8c-3.75,1.72-7.47,3.5-11.19,5.28-6.58,3.15-13.15,6.33-19.75,9.46a17.23,17.23,0,0,1-3.62,1.59,6.69,6.69,0,0,1-.13-2.16q0-35.6,0-71.17c0-2.93,0-5.86,0-8.78a1.85,1.85,0,0,1,1.22-2c3.07-1.37,6.08-2.88,9.11-4.33q15.9-7.57,31.8-15.14c6.47-3.09,12.92-6.24,19.4-9.3a11.71,11.71,0,0,1,3.51-1.43v81.81c0,.32,0,.64,0,.95.06.61-.27.91-.78,1.15-1.74.79-3.46,1.59-5.17,2.42a31.16,31.16,0,0,0-3.72,1.93,6,6,0,0,0-.07,9.88c2.23,1.55,4.51,1.4,6.83.29,3.67-1.75,7.31-3.56,11-5.27a6.46,6.46,0,0,0,4-6.48q-.06-48,0-96a6.58,6.58,0,0,0-4.26-6.52c-7.65-3.58-15.24-7.26-22.89-10.83a2.66,2.66,0,0,1-1.8-2.85c.15-11.44-.17-22.88.3-34.31.17-4.26-.22-8.51-.29-12.76-.05-3.62.24-7.23.31-10.84.08-4.13-.29-8.25-.28-12.38,0-2,0-4.07,0-6.1,0-.92.3-1.29,1.21-1.19a10.84,10.84,0,0,0,1.14,0H328.5c9.54,0,19.08,0,28.62,0a6.25,6.25,0,0,0,4.95-2,6.14,6.14,0,0,0,1.57-4.35c0-4.2,0-8.4,0-12.6,0-.75.08-1.27,1-1.54a12.56,12.56,0,0,0,3.47-2C379,71.34,377.74,54.44,365.91,48.37Zm-8.4,10.16a5.84,5.84,0,0,1,5.88,5.9c0,3.35-3.17,6-5.84,5.67a5.59,5.59,0,0,1-5.75-5.73A5.78,5.78,0,0,1,357.51,58.53Zm-44.94,140.2c-1.72.85-3.4,1.69-5.09,2.51l-19.93,9.51-28.19,13.41c-2.81,1.33-5.63,2.64-8.42,4a2,2,0,0,1-2,0c-3.42-1.65-6.89-3.23-10.32-4.87q-16.14-7.73-32.28-15.48c-6.18-3-12.38-5.87-18.57-8.81a4.21,4.21,0,0,1-.58-.51c2.37-1.16,4.6-2.28,6.86-3.36,4.87-2.32,9.75-4.61,14.62-6.93L238.43,174c3.37-1.61,6.77-3.19,10.11-4.88a2.78,2.78,0,0,1,2.8,0c9.08,4.41,18.18,8.75,27.29,13.1l25.42,12.15c2.4,1.15,4.81,2.28,7.22,3.42A2.41,2.41,0,0,1,312.57,198.73Zm-68.66,41.74a4.82,4.82,0,0,0,0,.76V323c-1.54-.71-2.8-1.27-4-1.87l-28.32-13.6q-13-6.21-25.94-12.38c-1.89-.9-3.79-1.8-5.7-2.65-.73-.32-1.14-.75-1-1.59a6,6,0,0,0,0-.95V210.4a4.71,4.71,0,0,1,.18-2c1.1.49,2.2.95,3.27,1.46,6.52,3.13,13,6.28,19.56,9.4q13.83,6.6,27.68,13.16c4.41,2.1,8.81,4.24,13.23,6.32C243.6,239.11,244.06,239.56,243.91,240.47Zm6-181.94a5.88,5.88,0,0,1,5.87,5.92c.08,3.07-3.05,6-5.86,5.65a5.6,5.6,0,0,1-5.75-5.74A5.79,5.79,0,0,1,249.9,58.53Zm-107.57,0a5.89,5.89,0,0,1,5.81,5.78c.14,3.17-3,6.19-5.92,5.79a5.6,5.6,0,0,1-5.69-5.81A5.77,5.77,0,0,1,142.33,58.53Z"/><path class="b603e36d-6275-4b11-a612-db6fba5c8892" d="M453.08,128.19a15.2,15.2,0,0,0-4.38-9.09c-3.88-4.22-8.8-6-14.47-6H352.94a14.57,14.57,0,0,0-2.09.12,6,6,0,0,0-4.81,8.09c1,2.63,3.09,4,6.26,4h81.48c.51,0,1,0,1.52,0a6.24,6.24,0,0,1,5.88,4.6,9.58,9.58,0,0,1,.31,2.82v228.4a6.5,6.5,0,0,1-5.5,6.32c-1,.1-2,.22-3,.22H67a9.83,9.83,0,0,1-1.33,0,12.14,12.14,0,0,1-3.16-.57,6.88,6.88,0,0,1-4.11-6.47q0-114.1,0-228.22a7.53,7.53,0,0,1,0-.95c.33-2.63,1.49-4.67,4.08-5.71a8.42,8.42,0,0,1,3.18-.43H186.85c.45,0,.89,0,1.34,0,1.35,0,1.38,0,1.39-1.35,0-2.86,0-5.72,0-8.58,0-2.28,0-2.28-2.36-2.28H67c-1.2,0-2.41,0-3.61.12A18.24,18.24,0,0,0,46.79,127.6a1.05,1.05,0,0,0-.65.46V364.69l.37.26c0,.24,0,.47,0,.71a6.93,6.93,0,0,0,.58,2.58A18.63,18.63,0,0,0,64.6,380.13H190.48c2.8,0,2.89.08,2.43,2.76-2.25,13.06-8.74,23.71-18.45,32.55a6.64,6.64,0,0,1-4.84,1.77c-7.44-.08-14.88,0-22.31,0A18.44,18.44,0,0,0,129.63,441c2,6.74,8.84,12.75,14.93,12.43a.75.75,0,0,0,.05.16H355.29a1.21,1.21,0,0,0,0-.18,11.43,11.43,0,0,0,4.83-.9,18.48,18.48,0,0,0,10.47-20.61,18.14,18.14,0,0,0-17.93-14.74c-7.38,0-14.76-.07-22.13,0a7.42,7.42,0,0,1-5.5-2.09c-9.24-8.62-15.48-18.95-17.95-31.43-.7-3.57-.69-3.58,3-3.58h124.6a19.46,19.46,0,0,0,4.17-.27c8.1-1.77,13-7.06,14.48-15.55V128.82C453.11,128.69,453.11,128.44,453.08,128.19ZM352.14,429.88a5.74,5.74,0,0,1,4.74,1.95,5.37,5.37,0,0,1,1.07,5.83,5.65,5.65,0,0,1-5,3.8,12,12,0,0,1-1.34,0q-101.69,0-203.37,0c-3.14,0-5.47-1.49-6.38-4.08a5.74,5.74,0,0,1,5-7.53c.51,0,1,0,1.53,0H250.07Q301.1,429.9,352.14,429.88Zm-43.52-13.67a2.86,2.86,0,0,1,.83,1.4H190.51c0-.64.41-.95.71-1.32a67.55,67.55,0,0,0,13.47-27.4,64.14,64.14,0,0,0,1.3-7.66c.17-1.56.16-1.56,1.65-1.59h83.94a5,5,0,0,0,.95,0c1.05-.17,1.29.43,1.38,1.3a64.54,64.54,0,0,0,6.41,22.33A69.88,69.88,0,0,0,308.62,416.21Z"/><path class="b603e36d-6275-4b11-a612-db6fba5c8892" d="M311.9,125.34c2.35,0,4.7,0,7.05,0s4.83,0,7.25,0a5.87,5.87,0,0,0,5.33-3.07,6,6,0,0,0-5.26-9.1c-4.88-.15-9.78,0-14.67,0-.88,0-1.05.33-1,1.11,0,3.31.05,6.61,0,9.91C310.53,125.19,311,125.36,311.9,125.34Z"/><path class="b603e36d-6275-4b11-a612-db6fba5c8892" d="M216.76,125.35q9.92-.09,19.82,0c1.1,0,1.25-.43,1.24-1.34,0-3.18,0-6.36,0-9.53,0-1.35,0-1.37-1.32-1.37-3.24,0-6.48,0-9.72,0H217c-1.68,0-1.5,0-1.5,1.57,0,3.12,0,6.23,0,9.34C215.51,124.93,215.67,125.36,216.76,125.35Z"/><path class="b603e36d-6275-4b11-a612-db6fba5c8892" d="M264.69,125.34c3.43,0,6.87,0,10.3,0s7,0,10.49,0c.73,0,1.2-.06,1.19-1,0-3.44,0-6.87,0-10.31,0-.78-.32-.94-1-.93-7.06,0-14.12,0-21.17,0-1,0-1.13.43-1.12,1.26,0,3.24.05,6.49,0,9.73C263.33,125.13,263.75,125.35,264.69,125.34Z"/></svg>