<svg id="e4a9322b-7232-4115-a91f-7a25d87fc46b" data-name="Layer 1" xmlns="http://www.w3.org/2000/svg" viewBox="0 0 500 500"><defs><style>.a39e48e8-433c-411b-bf4c-e6ff8f69cead{fill:#bd1622;}.fef7b2a0-dc45-4112-84ca-fe1ab45593a7{fill:#383838;}</style></defs><title>5-01</title><path class="a39e48e8-433c-411b-bf4c-e6ff8f69cead" d="M116.92,97.58l14.68-7.1L172,71c3.34-1.61,6.68-3.21,10-4.83A2.16,2.16,0,0,1,184,66.1c4.08,1.91,8.27,3.59,12.29,5.62,6.91,3.47,13.88,6.79,20.84,10.16q19.53,9.45,39.1,18.83c6.6,3.19,13.19,6.41,19.8,9.61l37.77,18.27,23.43,11.31c13.08,6.32,26.15,12.66,39.26,18.9a8.13,8.13,0,0,1,4.14,4.32c1.58,3.4,1.51,6.87,1.29,10.43,0,.74-.09,1.48-.09,2.22v72.06c0,.74,0,1.48-.05,2.22a6.38,6.38,0,0,1-3.83,5.54q-11.24,5.47-22.51,10.88-11.89,5.75-23.8,11.47a7.3,7.3,0,0,1-4.46.94,6.57,6.57,0,0,1-5.68-6.58c0-.54,0-1.08,0-1.62q0-36,0-72.07a2.81,2.81,0,0,0-1.88-3.05c-5.44-2.49-10.8-5.15-16.19-7.74q-19.17-9.24-38.35-18.47c-6.79-3.27-13.56-6.59-20.35-9.86q-19.17-9.26-38.37-18.49c-5.09-2.45-10.15-5-15.24-7.42L154.5,115.86c-7-3.35-13.89-6.78-20.9-10-5.07-2.35-10.08-4.82-15.12-7.22A3.58,3.58,0,0,1,116.92,97.58Z"/><path class="fef7b2a0-dc45-4112-84ca-fe1ab45593a7" d="M452.73,136.07c0-.47,0-.94,0-1.41a5.69,5.69,0,0,0-2.88-5c-.91-.56-1.9-1-2.86-1.47l-22.53-10.87L387.77,99.6c-7-3.4-14-6.85-21.06-10.25q-18.82-9.07-37.66-18.1-11.46-5.52-22.89-11.07L269.29,42.36q-8-3.86-16-7.69a6.67,6.67,0,0,0-6,0C242.85,36.81,238.41,38.9,234,41c-9,4.35-18,8.74-27.05,13.1-2.48,1.2-5,2.35-7.46,3.56l-13.57,6.6a1.66,1.66,0,0,0,.81.64c4.34,2,8.69,4,13,6.07A2.33,2.33,0,0,0,202,71c7.79-3.8,15.61-7.56,23.42-11.34S241.26,52,249.18,48.1a2.2,2.2,0,0,1,2.22,0c2.64,1.34,5.33,2.56,8,3.85q18.36,8.85,36.69,17.72l22,10.6L354.78,98c7.52,3.63,15,7.23,22.55,10.87q19,9.18,38,18.39c4.6,2.23,9.21,4.44,13.8,6.69.69.34,1.58.37,2.1,1.29l-50.37,24.34A19.22,19.22,0,0,1,384,172.36l18.9-9.14,18.55-8.93c6.14-2.94,12.22-6,18.6-8.93V358.71a8.27,8.27,0,0,0,0,1.22,1.22,1.22,0,0,1-.87,1.38q-2.19,1-4.37,2.07l-36,17.39L375.58,392l-35.45,17.11-23.63,11.4q-17.72,8.55-35.42,17.1c-7.14,3.46-14.27,6.95-21.41,10.41-.89.43-1.82.78-2.92,1.25v-1.54q0-106.1,0-212.19a2.3,2.3,0,0,1,1.49-2.46c4.51-2.11,9-4.33,13.45-6.49,5-2.39,9.95-4.76,14.91-7.15l13.61-6.61A6.46,6.46,0,1,0,295,201c-1.73.73-3.41,1.59-5.1,2.41-12.67,6.12-25.34,12.22-38,18.41a3.3,3.3,0,0,1-3.34-.06q-7.86-3.9-15.82-7.62a6.43,6.43,0,0,0-8.85,7.89,6.29,6.29,0,0,0,3.43,3.77c5,2.38,9.91,4.85,14.9,7.2,1.23.57,1.79,1.29,1.55,2.62a4.37,4.37,0,0,0,0,.81V449.34L234.61,445l-22.88-11L174.66,416c-6.85-3.31-13.68-6.66-20.52-10q-18.91-9.12-37.84-18.21c-7.09-3.42-14.16-6.88-21.25-10.3-10.84-5.23-21.66-10.5-32.54-15.63a2.94,2.94,0,0,1-1.91-3.21c0-12.42,0-24.84,0-37.25V147.91a7.94,7.94,0,0,1,.1-2.25c.62-.21.94.14,1.28.3l24.16,11.68,35.09,16.94q17.8,8.59,35.63,17.19,16.53,8,33,16,5.09,2.46,10.18,4.89a6.35,6.35,0,0,0,6.84-.72,6,6,0,0,0,2.41-5.89,6.51,6.51,0,0,0-4.12-5.33q-6.82-3.24-13.64-6.52-18.26-8.8-36.51-17.62c-7-3.4-14-6.84-21.05-10.23q-19.19-9.25-38.38-18.48L73.82,137.39c-1.47-.71-2.91-1.47-4.67-2.36L129,106.11c-4.85-2.36-9.34-4.53-13.8-6.75a2.12,2.12,0,0,0-2.07,0c-3.07,1.52-6.18,3-9.27,4.46q-11.71,5.64-23.43,11.31Q66.07,122.11,51.72,129a6.46,6.46,0,0,0-3.92,6.28c0,5,0,10,0,15q0,107,0,214c0,3.36,1.36,5.59,4.48,6.91,2.42,1,4.72,2.28,7.08,3.42l22.71,11,36.52,17.63,22.73,11,35.81,17.29,23.25,11.24,32,15.46c5,2.4,9.94,4.77,14.9,7.17a6.73,6.73,0,0,0,6.19,0c6.36-3.07,12.73-6.11,19.09-9.17l37.05-17.91c6.84-3.31,13.66-6.66,20.51-10l37.66-18.1q11.46-5.52,22.9-11.07l36.69-17.72c6.9-3.34,13.75-6.78,20.71-10,3.26-1.51,4.75-3.68,4.75-7.35Q452.69,250.06,452.73,136.07Z"/><path class="fef7b2a0-dc45-4112-84ca-fe1ab45593a7" d="M134.9,331.17A6.44,6.44,0,0,0,139,319q-17.79-8.61-35.59-17.18-9.36-4.51-18.71-9.06a6.07,6.07,0,0,0-3.19-.77,6,6,0,0,0-3.42.68,6.48,6.48,0,0,0-.56,10.85A19.37,19.37,0,0,0,80.14,305c8.49,4.08,17,8.13,25.47,12.22l27.22,13.19A12.62,12.62,0,0,0,134.9,331.17Z"/><path class="fef7b2a0-dc45-4112-84ca-fe1ab45593a7" d="M112.55,336.24Q98.27,329.39,84,322.48a5.8,5.8,0,0,0-2.74-.54,6.22,6.22,0,0,0-6.33,4.86,6.6,6.6,0,0,0,3.59,7.4c2.72,1.3,5.46,2.59,8.18,3.91,6.72,3.25,13.42,6.53,20.15,9.77a8.6,8.6,0,0,0,2.1.68,6.48,6.48,0,0,0,3.59-12.32Z"/></svg>