<svg id="fbdbb7f7-7bb9-4449-8e50-c745594547b2" data-name="Layer 1" xmlns="http://www.w3.org/2000/svg" viewBox="0 0 500 500"><defs><style>.f71b52b2-70bd-4343-927d-23fc4ac4aef9{fill:#383838;}.edd74699-12cf-44ca-9680-d8d7e8f94b0e{fill:#bc1622;}</style></defs><title>6-01</title><path class="f71b52b2-70bd-4343-927d-23fc4ac4aef9" d="M453.2,102.06a25.28,25.28,0,0,0-6.54-12,23.66,23.66,0,0,0-5.2-4,22.26,22.26,0,0,0-11.16-3.39q-179.1,0-358.21,0a23,23,0,0,0-5.17.59A25.26,25.26,0,0,0,55,89.67a24.95,24.95,0,0,0-7.49,16.44q0,122.07,0,244.14a20,20,0,0,0,.66,5.07,24.7,24.7,0,0,0,7.7,12.74,25.46,25.46,0,0,0,7.22,4.55,23.32,23.32,0,0,0,8.82,1.83H191.81a2.59,2.59,0,0,1,1.08.06c-.24,1.9-.49,3.77-.7,5.65-.2,1.72-.41,3.45-.62,5.18s-.49,3.74-.72,5.62c-.21,1.69-.39,3.39-.61,5.08s-.51,3.62-.72,5.43-.4,3.46-.62,5.18c-.23,1.88-.51,3.75-.7,5.62-.07.72-.24,1-1,1-6.57,0-13.13,0-19.7,0a4.45,4.45,0,0,0-1,.09,6.18,6.18,0,0,0-4.53,6.6c.28,2.63,2.77,5.3,5.53,5.3H333.83a2.75,2.75,0,0,0,.76,0,6,6,0,0,0,4.7-4.92c.44-2.51-.37-4.4-2.59-6.09a5.07,5.07,0,0,0-3.2-1c-6.47,0-12.94,0-19.41,0-.52,0-1,0-1-.65,0-1.16-.27-2.28-.4-3.42-.19-1.77-.31-3.54-.59-5.28-.3-1.9-.5-3.81-.74-5.72-.14-1.14-.25-2.28-.42-3.42-.27-1.87-.48-3.74-.72-5.62-.21-1.69-.38-3.39-.59-5.08-.24-1.85-.5-3.68-.74-5.53-.18-1.34-.35-2.69-.53-4.12H428.93a26.79,26.79,0,0,0,4-.37,24.66,24.66,0,0,0,13.77-7.14,24.25,24.25,0,0,0,3.82-5.11,21.44,21.44,0,0,0,3.22-10.74q.07-121.92,0-243.85A23,23,0,0,0,453.2,102.06ZM200.26,413.26c.23-1.83.45-3.63.68-5.44s.5-3.68.74-5.52.38-3.39.6-5.08c.24-1.87.45-3.75.71-5.62.17-1.16.28-2.34.43-3.52.24-1.87.43-3.75.73-5.61s.41-3.52.59-5.28c.07-.65.22-1.28.23-1.95,0-.48.24-.82.92-.82q10.1.06,20.18,0c.62,0,.82.21,1,.8.89,3.37,1.49,6.82,2.66,10.11a21.42,21.42,0,0,0,6.65,9.42,22.25,22.25,0,0,0,10.12,4.78,22.7,22.7,0,0,0,21-7.28,22.33,22.33,0,0,0,5-10.19c.51-2.37,1.13-4.71,1.71-7.05a.68.68,0,0,1,.78-.59q10.23,0,20.46,0c.79,0,.76.52.82.94.34,2.8.62,5.61,1,8.42.42,3.28.91,6.56,1.32,9.84.35,2.81.61,5.62,1,8.42.41,3.29.88,6.57,1.32,9.85.06.43-.1.89.15,1.36Zm39.9-38.82c3.49,0,7,0,10.46,0s7,0,10.46,0c.7,0,.89.05.65.88-.68,2.38-1,4.86-2.15,7.08a10.2,10.2,0,0,1-16,2.6,11.11,11.11,0,0,1-3.26-6.26,34,34,0,0,0-.85-3.48C239.24,374.48,239.53,374.43,240.16,374.44Zm201.6-25.32a13.13,13.13,0,0,1-10.39,12.93,17.61,17.61,0,0,1-3.7.39q-177,0-354.09,0c-4.29,0-8-1.33-10.89-4.7a13,13,0,0,1-3-7,48.64,48.64,0,0,1-.16-6.15q0-118.4,0-236.8a13,13,0,0,1,3.31-8.68,13.68,13.68,0,0,1,7.5-4.33,10.63,10.63,0,0,1,2.33-.2h178q89,0,177.9,0a12.94,12.94,0,0,1,8.68,3.32,13.54,13.54,0,0,1,4.34,7.49,10.55,10.55,0,0,1,.21,2.32Q441.79,228.44,441.76,349.12Z"/><path class="edd74699-12cf-44ca-9680-d8d7e8f94b0e" d="M332.91,176.45c-.32-2-2.62-4.48-4.59-4.75-2.19-.3-4.39-.17-6.58-.35-2.38-.2-4.77-.26-7.15-.37l-9.06-.39c-2.57-.1-5.15-.26-7.72-.38l-8.77-.38c-2.67-.11-5.34-.26-8-.38l-8.67-.38c-2.7-.12-5.41-.28-8.11-.37-3.27-.12-6.54-.28-9.81-.43l-6.87-.33q-4.51-.23-9-.4c-2.58-.1-5.15-.26-7.73-.37l-8.76-.38c-2.67-.12-5.34-.27-8-.38l-8.68-.39c-2.7-.11-5.4-.27-8.1-.37-3.15-.12-6.29-.28-9.43-.4a.9.9,0,0,1-1-.71,11.57,11.57,0,0,0-4.31-5.63c-5.6-3.79-11.24-7.52-16.84-11.33a6.62,6.62,0,0,0-6.31-1,5.41,5.41,0,0,0-3.7,4.5c-.34,2.36.18,4.55,2.34,6q8.43,5.67,16.87,11.3a1.61,1.61,0,0,1,.74,1c.5,1.71,1,3.42,1.5,5.13q1.63,5.67,3.25,11.36,2.37,8.29,4.73,16.59c1.21,4.23,2.44,8.46,3.65,12.68q2.38,8.34,4.75,16.69c1,3.43,1.9,6.88,2.88,10.31.91,3.17,1.75,6.38,3.83,9,.29.37.2.6,0,1-2.38,4.76-4.68,9.56-7.14,14.27a13.11,13.11,0,0,0-1.47,9.68,12,12,0,0,0,3.93,6.39c.42.35.47.53.25,1a18.81,18.81,0,0,0-1.74,12.4,18.05,18.05,0,0,0,4.55,9,18.4,18.4,0,0,0,11.58,5.92,18.6,18.6,0,0,0,10-1.51,18.63,18.63,0,0,0,11-16.13,18.88,18.88,0,0,0-1.17-7.66H284a18.74,18.74,0,0,0-.77,10.8,17.93,17.93,0,0,0,7.91,11.54,18.12,18.12,0,0,0,12.68,3,20.15,20.15,0,0,0,5.92-1.71,17.59,17.59,0,0,0,6.62-5.34,17.12,17.12,0,0,0,2.28-3.79,21.53,21.53,0,0,0,1.57-6.08,18,18,0,0,0-.22-4.92,14.5,14.5,0,0,0-1.32-4.41.74.74,0,0,1,0-1,5.73,5.73,0,0,0,1.49-5.3,5.93,5.93,0,0,0-5.6-4.8H204.88c-.22,0-.45,0-.67,0-.68,0-.94-.15-.58-.87q3.44-6.84,6.84-13.7c.19-.37.4-.58.87-.44,2.8.79,5.64.44,8.45.11l6-.72c1.24-.14,2.49-.26,3.72-.43,2-.25,3.95-.48,5.93-.71l3.81-.43q3-.37,5.92-.71l3.81-.42c1.92-.23,3.82-.49,5.74-.72,1.33-.16,2.67-.28,4-.44,1.85-.22,3.69-.49,5.54-.7s3.73-.37,5.59-.59,3.81-.52,5.73-.74,3.78-.37,5.67-.6c2.41-.28,4.81-.64,7.21-.93,1.89-.22,3.79-.36,5.68-.59,2.41-.28,4.8-.66,7.21-.92a23.66,23.66,0,0,0,7.7-2.21,25,25,0,0,0,13.52-16.46c.56-2.31.94-4.66,1.41-7q1-5,2-10.08c.66-3.3,1.31-6.6,2-9.9.73-3.67,1.48-7.33,2.22-11,.68-3.36,1.42-6.7,2-10.08C332.54,180.25,333.23,178.44,332.91,176.45Zm-31.32,109a6.69,6.69,0,0,1,6.56,6.88c0,3.29-3.33,6.69-6.66,6.38a6.63,6.63,0,1,1,.1-13.26Zm-95.73,6.34a6.59,6.59,0,0,1,6.59-6.34,6.63,6.63,0,1,1,0,13.26C209.09,299,205.58,295.63,205.86,291.76Zm-7.42-88.43c-.65,0-.62-.46-.71-.76-.92-3.1-1.79-6.21-2.68-9.31q-2.18-7.59-4.34-15.17c-.08-.29-.27-.86.47-.52a.74.74,0,0,0,.37,0c2.31-.14,4.6.16,6.91.22,2.95.08,5.91.23,8.86.39,2.06.12,4.14.11,6.2.32.5.05.67.27.73.65.52,3.21,1,6.43,1.54,9.64s1.15,6.58,1.7,9.88c.25,1.5.44,3,.67,4.6C211.58,203.31,205,203.29,198.44,203.33Zm26.08,42.41c-3.1.34-6.19.84-9.3.92a6.39,6.39,0,0,1-6.29-5q-1.43-5-2.86-10c-1.47-5.18-2.9-10.36-4.43-15.51-.25-.84.16-.68.59-.68h8.66c2.85,0,5.7,0,8.56,0,.66,0,.83.26.92.85.41,2.57.89,5.12,1.3,7.68s.76,5,1.17,7.53c.47,2.87,1,5.73,1.47,8.59.27,1.62.53,3.24.81,4.85A.6.6,0,0,1,224.52,245.74ZM251,229.1c0,4.22,0,8.43,0,12.65,0,.7-.26.92-.91,1-2.66.22-5.31.59-8,.92-1.51.19-3,.29-4.53.55-.34.06-.47-.12-.51-.39-.32-2-.63-4-1-6.06s-.72-4.2-1.07-6.3-.67-4.29-1-6.42c-.41-2.5-.78-5-1.29-7.5-.41-2-.48-2,1.59-2,5.27,0,10.53,0,15.79,0,.72,0,.88.19.88.89C251,220.61,251,224.86,251,229.1ZM251,181c0,3.58,0,7.16,0,10.74s0,7.17,0,10.75c0,.59-.11.81-.76.8-6.37,0-12.74,0-19.12,0-.38,0-.64.05-.73-.54-.3-2.18-.73-4.33-1.1-6.49-.44-2.56-.85-5.13-1.27-7.69-.35-2.08-.68-4.15-1-6.23a23.39,23.39,0,0,0-.42-2.66c-.13-.5-.1-.62.39-.57,2.06.23,4.14,0,6.2.37a.88.88,0,0,0,.28,0c2.34-.13,4.66.16,7,.23,2.92.08,5.83.34,8.76.35.46,0,.9.23,1.38.19S251,180.75,251,181Zm32.19,35.25c-.26,2.35-.57,4.7-.74,7.06-.11,1.56-.26,3.12-.4,4.67-.24,2.64-.43,5.29-.74,7.92-.1.86-.07,1.75-.22,2.62,0,.22.1.51-.32.55l-5.1.57c-1.91.23-3.82.49-5.73.72-1.33.16-2.67.28-4,.42a12.47,12.47,0,0,0-2.31.29c-.63.18-.63-.06-.63-.5,0-1.69,0-3.37,0-5,0-6.37,0-12.74,0-19.12,0-.82.24-1,1-1,3,.05,6.09,0,9.14,0s6.21,0,9.32,0C283.1,215.47,283.26,215.69,283.19,216.28Zm3-33.95c-.17,1.68-.3,3.36-.51,5-.11.84-.11,1.68-.21,2.52-.3,2.48-.4,5-.62,7.48-.16,1.83-.39,3.65-.55,5.48,0,.37-.13.52-.5.48h-.38c-6.53,0-13.06,0-19.59,0-.7,0-.89-.15-.88-.87,0-3.46,0-6.91,0-10.37s0-7,0-10.46c0-.48,0-.8.67-.79,3.59,0,7.17.33,10.75.44,2.22.08,4.45.22,6.67.31a35.64,35.64,0,0,0,4.62.21C286.14,181.75,286.28,181.93,286.23,182.33Zm26.83,33.88c-.56,2.56-1,5.15-1.55,7.72a19.7,19.7,0,0,1-1.54,5.58,12.87,12.87,0,0,1-10.41,7.31c-1.85.21-3.69.51-5.54.74-1,.12-.34-.72-.59-1,.26-2.6.6-5.17.77-7.75.1-1.69.28-3.37.42-5.05.21-2.61.51-5.21.74-7.82,0-.43.25-.42.55-.42,5.55,0,11.1,0,16.65,0C313.19,215.48,313.14,215.86,313.06,216.21Zm6.48-32.3c-1,4.86-2,9.72-3,14.58a39.57,39.57,0,0,0-.74,4c-.08.8-.44.83-1,.82H306c-2.85,0-5.7,0-8.55,0-.72,0-1-.13-.94-.91.28-2.38.59-4.76.74-7.15.11-1.66.3-3.3.42-4.95.18-2.44.37-4.86.58-7.29a.64.64,0,0,1,.81-.66c3.18.38,6.39.17,9.57.57a1.31,1.31,0,0,0,.28,0c2.37-.13,4.73.24,7.09.22,1,0,2.06.2,3.1.15C319.59,183.29,319.6,183.58,319.54,183.91Z"/></svg>