<svg id="a60ce198-b9b6-4530-bdef-ff5a9315b849" data-name="Layer 1" xmlns="http://www.w3.org/2000/svg" viewBox="0 0 500 500"><defs><style>.b8a98c16-d687-4789-964d-866819b452eb{fill:#bc1622;}.fdd930f0-3eb9-41f6-8cce-2122f723ab99{fill:#383838;}</style></defs><title>7-01</title><path class="b8a98c16-d687-4789-964d-866819b452eb" d="M199.48,78.53a61.36,61.36,0,0,1,24.44,4.78,82.6,82.6,0,0,1,25.71,17.57c.64.66.94.55,1.53,0a90.06,90.06,0,0,1,17.66-13.62,67,67,0,0,1,18.94-7.45,60.55,60.55,0,0,1,7.25-1,59.9,59.9,0,0,1,9.08-.12A50,50,0,0,1,315,80.54a54.58,54.58,0,0,1,18.67,9.39,58,58,0,0,1,21.23,33.2,43.72,43.72,0,0,1,1.28,9.88c0,1.11.26,2.22.21,3.34a67.94,67.94,0,0,1-2.45,16.14,58.53,58.53,0,0,1-8.12,16.91,54.16,54.16,0,0,1-6.19,7.41q-44.1,44.13-88.2,88.25c-.87.87-1.25.76-2,0Q205.19,220.8,161,176.61a57.81,57.81,0,0,1-15.09-27.78,44.29,44.29,0,0,1-1.28-9.88c0-1.11-.26-2.22-.21-3.34a67.86,67.86,0,0,1,2.45-16.14A57.56,57.56,0,0,1,155,102.56,54.49,54.49,0,0,1,162.33,94a57.62,57.62,0,0,1,16.06-10.76,54.41,54.41,0,0,1,13.57-4A45,45,0,0,1,199.48,78.53Z"/><path class="fdd930f0-3eb9-41f6-8cce-2122f723ab99" d="M453.18,118.9a12.6,12.6,0,0,0-.26-2.74,27.19,27.19,0,0,0-13.41-18.69A26.68,26.68,0,0,0,425,94.19a27.12,27.12,0,0,0-10.27,2.55,25.87,25.87,0,0,0-9.52,7.68,25.13,25.13,0,0,0-4.48,8.91,47.24,47.24,0,0,0-1.19,7.76c-.3,2.92-.61,5.85-.9,8.78-.17,1.75-.29,3.51-.51,5.25-.34,2.85-.61,5.7-.89,8.55-.18,1.75-.31,3.51-.51,5.26-.31,2.84-.6,5.69-.89,8.54-.18,1.75-.31,3.51-.51,5.26-.33,2.84-.57,5.69-.89,8.54-.2,1.75-.32,3.51-.51,5.26-.34,2.92-.62,5.85-.9,8.77-.15,1.68-.29,3.36-.48,5-.29,2.69-.64,5.38-.91,8.07-.2,1.95-.29,3.91-.49,5.85-.36,3.57-.78,7.13-1.14,10.7-.05.46-.11.58-.62.7a26.31,26.31,0,0,0-8.53,3.69,52.21,52.21,0,0,0-5.56,4.82c-3.58,3.18-7,6.48-10.52,9.78-2.07,2-4.2,3.87-6.28,5.83-3.46,3.26-7,6.48-10.43,9.72q-3.21,3-6.46,6-5.43,5-10.75,10c-2,1.89-4,3.7-6,5.58-3.46,3.26-6.95,6.48-10.43,9.72-2.15,2-4.31,4-6.45,6-3.44,3.22-6.86,6.46-10.35,9.63a50.32,50.32,0,0,0-4.1,4.53,49.13,49.13,0,0,0-5.72,8.44,51.75,51.75,0,0,0-4.58,11.47,41.6,41.6,0,0,0-1.71,10.77c-.07,29.62,0,59.24-.06,88.86,0,1,.25,1.19,1.2,1.19q45.74,0,91.46,0c1,0,1.19-.24,1.19-1.2,0-12.79,0-25.57,0-38.35a31,31,0,0,1,.45-6.08,22.32,22.32,0,0,1,5.53-11c3.85-4.17,8-8.07,11.93-12.15,9.38-9.67,19.08-19,28.45-28.7,6.65-6.86,13.49-13.52,20.24-20.29a27.7,27.7,0,0,0,2.24-2.48,40.35,40.35,0,0,0,6.6-11.26,35.82,35.82,0,0,0,2.45-12.18q0-39.59,0-79.17Q453.19,158.89,453.18,118.9ZM437.48,276a23.13,23.13,0,0,1-6.84,16.59c-9.65,9.9-19.59,19.51-29.21,29.44-8.54,8.8-17.37,17.32-25.9,26.13-2.21,2.29-4.56,4.45-6.64,6.86a38.5,38.5,0,0,0-8.33,16.1,44.54,44.54,0,0,0-1.18,10.8c0,7.64,0,15.28,0,22.92,0,.83-.09,1.18-1.09,1.18q-29.94,0-59.88,0c-.91,0-1.05-.27-1.05-1.1,0-24.4,0-48.8.07-73.2a29.7,29.7,0,0,1,2.22-10,36.68,36.68,0,0,1,6.58-11.13,37.21,37.21,0,0,1,5.15-5c1.29-1,2.38-2.3,3.64-3.4,1.95-1.71,3.74-3.61,5.65-5.36q5.25-4.81,10.43-9.71c2.16-2.05,4.36-4.05,6.54-6.07q5.18-4.81,10.34-9.64l6.53-6.08c3.52-3.25,7-6.5,10.52-9.79,2.19-2.07,4.4-4.11,6.62-6.16,3.4-3.14,6.78-6.31,10.17-9.47,2.23-2.08,4.46-4.17,6.7-6.24a9.82,9.82,0,0,1,9.68-2.45,9.4,9.4,0,0,1,7.15,7.59,9.22,9.22,0,0,1-3.62,9.73c-1.06.81-2,1.84-3,2.74-3,2.73-6,5.56-9,8.29-2.46,2.21-4.94,4.41-7.36,6.66q-5,4.68-10.18,9.25c-2.47,2.2-4.94,4.4-7.37,6.66-3.35,3.12-6.76,6.19-10.18,9.24-2.47,2.21-5,4.39-7.36,6.67-1.56,1.48-3.19,2.9-4.8,4.33-.38.34-.48.56-.06,1,2.58,2.76,5.15,5.53,7.65,8.36.84,1,1.71,1.88,2.63,2.84,3.87-3.54,7.67-7,11.49-10.51q3.68-3.34,7.36-6.67l11.09-9.92c1.86-1.68,3.7-3.38,5.55-5.07,3.78-3.47,7.53-7,11.35-10.39,2.43-2.19,4.87-4.37,7.28-6.58,2.67-2.45,5.52-4.71,8-7.36a25,25,0,0,0,6.12-12.17,26.17,26.17,0,0,0,.41-7.48,24.36,24.36,0,0,0-4.37-12.3,27.3,27.3,0,0,0-7.4-7.17,14.6,14.6,0,0,0-3.07-1.64c-.59-.21-.74-.38-.65-1.17.2-1.79.38-3.58.57-5.37.29-2.81.55-5.62.87-8.43.21-1.86.35-3.74.53-5.61.27-2.73.57-5.46.87-8.19.21-1.86.34-3.74.54-5.61.28-2.81.55-5.62.86-8.43.2-1.78.36-3.58.54-5.37.29-2.81.54-5.62.87-8.43.21-1.82.35-3.66.53-5.49.27-2.77.57-5.54.87-8.31.21-1.86.35-3.74.54-5.61.29-2.81.55-5.62.86-8.43.2-1.78.34-3.59.55-5.37.4-3.47.23-7,1.41-10.38a10.37,10.37,0,0,1,8.26-6.94c6-1.17,11.27,2.82,12.7,8.54a11.84,11.84,0,0,1,.29,2.85Q437.53,198.77,437.48,276Z"/><path class="fdd930f0-3eb9-41f6-8cce-2122f723ab99" d="M219.25,339.67a98.91,98.91,0,0,0-.17-9.89,52.58,52.58,0,0,0-17-34.25c-3.87-3.44-7.57-7.07-11.36-10.61-1.8-1.68-3.64-3.32-5.45-5-3.54-3.28-7.09-6.56-10.59-9.89-2.06-2-4.2-3.87-6.28-5.83-3.46-3.25-7-6.48-10.42-9.71-2.15-2-4.29-4-6.46-6q-5.47-5-10.84-10.13c-1.95-1.87-4-3.67-5.95-5.5-3.76-3.44-7.53-6.89-11.16-10.47a25.29,25.29,0,0,0-11-6.46c-1.16-.33-1.8-.47-1.84-2-.07-2.77-.57-5.53-.85-8.3-.19-1.83-.31-3.67-.53-5.49-.32-2.81-.58-5.62-.86-8.43-.18-1.79-.35-3.59-.54-5.37-.31-2.81-.58-5.62-.87-8.43-.19-1.87-.31-3.75-.54-5.61-.34-2.77-.58-5.54-.87-8.31-.19-1.83-.32-3.67-.52-5.49-.31-2.77-.61-5.54-.88-8.31-.18-1.83-.32-3.67-.53-5.49-.32-2.77-.55-5.55-.87-8.31-.21-1.83-.39-3.66-.52-5.5-.19-2.69-.62-5.38-.89-8.07a71.17,71.17,0,0,0-.94-7.83A26.22,26.22,0,0,0,90,99.13a26.81,26.81,0,0,0-15.57-5.07,22.83,22.83,0,0,0-5.9.62A27.18,27.18,0,0,0,51,107.56a24.24,24.24,0,0,0-3.39,11.51q0,77.58,0,155.17a50.2,50.2,0,0,0,.42,8.3,39.19,39.19,0,0,0,11.57,22.13c8.23,8.4,16.64,16.62,24.85,25,10.88,11.14,22,22,32.89,33.19a43.83,43.83,0,0,1,3.1,3.29,21.7,21.7,0,0,1,5,13.44c.11,13.61,0,27.21,0,40.81,0,1,.19,1.28,1.24,1.27,15.21,0,30.41,0,45.61,0s30.41,0,45.61,0c1.09,0,1.4-.19,1.4-1.35Q219.24,380,219.25,339.67Zm-17,66.36q-29.84,0-59.65,0c-1,0-1.22-.19-1.21-1.18,0-7.88,0-15.75,0-23.63a39.57,39.57,0,0,0-4.82-19.41,36.62,36.62,0,0,0-5.74-7.89c-10-10.31-20.28-20.26-30.27-30.54C92.9,315.5,85,307.84,77.35,300c-2.85-2.91-5.79-5.75-8.51-8.79a21.67,21.67,0,0,1-5.12-10.89,38.8,38.8,0,0,1-.48-6.9q0-75.84,0-151.68c0-5.32,3-10,8.3-11.41a10.32,10.32,0,0,1,9.2,1.78c3,2.17,4.31,5.19,4.52,8.88.2,3.38.77,6.74,1.12,10.12.29,2.78.45,5.58.72,8.36s.64,5.3.92,8c.2,1.86.29,3.74.48,5.61.29,2.69.7,5.38.9,8.07.13,1.84.32,3.67.51,5.5.28,2.77.69,5.53.89,8.31.13,1.83.32,3.66.51,5.49.29,2.85.49,5.71.91,8.54.25,1.74.31,3.51.49,5.26.3,2.85.55,5.7.89,8.55.21,1.74.33,3.51.51,5.26.28,2.8.47,5.62.92,8.41,0,.32,0,.45-.41.63a25.75,25.75,0,0,0-6.72,4.38,25.4,25.4,0,0,0-7.17,10.71,23.56,23.56,0,0,0-1.35,6.64,26.36,26.36,0,0,0,1.38,10.49,24.86,24.86,0,0,0,7.58,11c1.93,1.58,3.71,3.36,5.56,5,3.78,3.46,7.55,6.94,11.34,10.39,2.36,2.16,4.74,4.29,7.11,6.42,3.7,3.32,7.42,6.59,11.08,9.94l5.47,5c3.89,3.52,7.72,7.1,11.59,10.63,2.28,2.08,4.6,4.1,6.86,6.18.51.47.84.57,1.33,0,2.82-3.16,5.67-6.29,8.49-9.45.5-.56,1.64-1.09,1.39-1.68a6.08,6.08,0,0,0-2.15-2.25c-1.13-.82-2-1.86-3.09-2.74-2.22-1.87-4.27-3.92-6.4-5.87q-5.16-4.73-10.35-9.41c-2.39-2.17-4.8-4.33-7.2-6.5L119,266.61c-2.46-2.22-4.9-4.45-7.37-6.66-3.6-3.24-7.28-6.39-10.82-9.7-2-1.87-4.21-3.54-5.15-6.41a9.9,9.9,0,0,1,6.62-12.64,9.7,9.7,0,0,1,9.91,2.41c2.86,2.72,5.71,5.46,8.62,8.12q3.29,3,6.54,6.07c3.49,3.27,7,6.51,10.51,9.8,2.16,2,4.36,4,6.53,6.07,3.46,3.21,6.91,6.41,10.35,9.64,2.16,2,4.36,4,6.53,6.07,3.5,3.27,7,6.51,10.51,9.8,2.13,2,4.31,4,6.46,6,3.47,3.24,6.94,6.49,10.43,9.71a52.27,52.27,0,0,1,8.48,9.23,36.55,36.55,0,0,1,5.72,14.34,30.81,30.81,0,0,1,.46,5.15q0,17.37,0,34.73,0,18.26,0,36.49C203.39,405.77,203.2,406,202.21,406Z"/></svg>