<svg id="e0903002-cf04-4730-adb1-00d8033f9058" data-name="Layer 1" xmlns="http://www.w3.org/2000/svg" viewBox="0 0 500 500"><defs><style>.f47d75da-b727-4e3e-8016-efc7e475c288{fill:#383838;}.ad690cd5-751c-457f-8057-02bdc48e1a3c{fill:#bd1622;}</style></defs><title>8-01</title><path class="f47d75da-b727-4e3e-8016-efc7e475c288" d="M447.28,432.34c0-2.19.33-2-2.06-2H410.68c-1.55,0-1.57,0-1.57-1.53q0-17.94,0-35.88c0-1,.23-1.37,1.29-1.61,9-2,16.2-7,22.18-13.9a54.27,54.27,0,0,0,8.79-14A65.17,65.17,0,0,0,447,330.66a76.71,76.71,0,0,0-9.25-29.83,49.63,49.63,0,0,0-8.12-11.5c-7.59-7.57-16.61-11.87-27.56-11.71a36,36,0,0,0-15,3.57,43.23,43.23,0,0,0-11.71,8.38,21.63,21.63,0,0,0-5.31,7.59c-.87,2.24-1.87,4.43-2.9,6.87a12.29,12.29,0,0,1-1.71-3c-2.56-5.6-4.87-11.31-7.11-17.05a3.2,3.2,0,0,1-.31-1.09,6.19,6.19,0,0,0-1-3.06c-3.85-8-7.39-16.13-10.84-24.31a8.57,8.57,0,0,1-.7-3.49q0-62.4,0-124.8c0-.51,0-1,0-1.53s-.24-.79-.79-.76c-.38,0-.76,0-1.15,0H334.2c-1.41,0-1.41,0-1.43-1.48,0-.31,0-.63,0-.95V91.82q0-8.11,0-16.22c0-1.77,0-1.65-1.68-1.65H319.45c-1.59,0-3.18,0-4.77,0-.71,0-1.09-.15-1-.94a11.8,11.8,0,0,0,0-1.33V50.12c0-1.45,0-1.46-1.43-1.48H213.77c-.44,0-.89,0-1.33,0s-.7.21-.68.69,0,.89,0,1.33V72.41c0,1.52.15,1.55-1.56,1.55H194.55c-2,0-1.88-.3-1.88,1.8v47.33c0,2,.18,1.89-1.81,1.89h-8.59c-2.45,0-2.45,0-2.45,2.38V249.67c0,2.87.36,2.4-2.42,2.4q-23.19,0-46.37,0c-2.27,0-2-.18-2,1.9q0,8.58,0,17.17c0,1.78,0,3.57,0,5.35,0,.93-.3,1.28-1.21,1.16a8.66,8.66,0,0,0-1.14,0H80.15c-2,0-2,0-2,2,0,.32,0,.64,0,1V384.07c0,3.69,0,7.38,0,11.07A1.79,1.79,0,0,1,77,397a42.85,42.85,0,0,0-13.66,10.77A44.54,44.54,0,0,0,53.75,427a58.1,58.1,0,0,0-1,13.42c0,2.65,0,2.65,2.57,2.65h389.5a12,12,0,0,1,1.34,0c.91.09,1.21-.26,1.19-1.19C447.25,438.7,447.29,435.52,447.28,432.34ZM129.05,292.43V355a.85.85,0,0,1-.69.95,46.12,46.12,0,0,0-11.91,5.84c0-2.55,0-4.7,0-6.85,0-.75-.25-1-1-1-3.62,0-7.25,0-10.87,0-.74,0-1.16.11-1.15,1,0,3.56.05,7.12,0,10.68,0,.92.42,1,1.15,1,1.78,0,3.56,0,5.51,0a7.26,7.26,0,0,1-1.56,2.13,43.51,43.51,0,0,0-10.45,20.82c-.5,2.47-.47,2.49-3.06,2.49a21.69,21.69,0,0,0-3.71.34,3.91,3.91,0,0,1-.2-1.95q0-49.12,0-98.25c0-.38,0-.76,0-1.14,0-.56.24-.81.8-.78.38,0,.76,0,1.14,0h34c.39,0,.77,0,1.15,0,.68-.05.89.3.86.92C129,291.67,129.05,292.05,129.05,292.43Zm211-18.21c3.67,8.16,7.57,16.2,11.61,24.18,6,11.84,12.47,23.39,19.3,34.76a4,4,0,0,1,.79,1.75H281.13c-.39-.62.14-1,.37-1.37q6.64-11,12.78-22.27,7.73-14.22,14.61-28.86c4.54-9.64,8.72-19.42,12.77-29.27.82-2,1.63-4,2.34-6a1.43,1.43,0,0,1,1.62-1.17c2.59,0,2.53,0,3.47,2.34Q334.27,261.37,340,274.22ZM226,61.34c.94.09,1.9,0,2.86,0h69.82c2.37,0,2.13-.37,2.14,2.11,0,3,0,6,0,9,0,1.68.08,1.52-1.56,1.52H226.59c-2.09,0-1.84.26-1.85-1.79,0-3.18,0-6.35,0-9.53C224.7,61.65,225,61.25,226,61.34Zm-18.7,25.59H317.79c2.37,0,2.12-.37,2.12,2.13q0,16.88,0,33.77c0,.38,0,.76,0,1.14,0,.71-.2,1-1,1-3.5,0-7,0-10.49,0-1,0-1.15-.4-1.15-1.25,0-4.58,0-9.16,0-13.74,0-3.18,0-6.36,0-9.54,0-.83-.24-1.09-1.07-1.08-3.57,0-7.13.05-10.69,0-1,0-1.25.37-1.25,1.33q0,11.06,0,22.13c0,2.5.25,2.11-2.12,2.13-2.93,0-5.85,0-8.78,0-1.42,0-1.44,0-1.44-1.47q0-11,0-21.94c0-.38,0-.76,0-1.14.07-.72-.19-1-.95-1-3.69,0-7.38,0-11.07,0-1,0-1,.49-1,1.18q0,7.06,0,14.12c0,2.92,0,5.85,0,8.78,0,1.5,0,1.51-1.6,1.51q-4.77,0-9.54,0c-1.42,0-1.44,0-1.45-1.47V101.56a10.84,10.84,0,0,1,0-1.14c.06-.72-.2-1-1-1q-5.43,0-10.88,0c-.88,0-1,.37-1,1.14,0,2.8,0,5.6,0,8.4,0,4.89,0,9.79,0,14.69,0,1.33,0,1.35-1.36,1.35h-9.54c-1.87,0-1.69,0-1.69-1.83V101.78a8.66,8.66,0,0,1,0-1.14c.15-1-.3-1.27-1.27-1.26-3.44.05-6.87,0-10.31,0-1.37,0-1.42-.07-1.41,1.51q0,11,0,21.94c0,.45,0,.89,0,1.34s-.23.79-.79.79c-3.57,0-7.13,0-10.69,0-.68,0-.89-.31-.86-.92,0-.38,0-.76,0-1.14V88.57C205.63,86.69,205.7,86.93,207.31,86.93Zm23.54,179.26a10.84,10.84,0,0,0,0,1.14v79.95c0,.19,0,.38,0,.57,0,1.58,0,1.59-1.48,2.09A44.21,44.21,0,0,0,216.17,357a43.73,43.73,0,0,0-14.82,20.76,6.18,6.18,0,0,0-.35,1.08c-.16,1-.67,1.22-1.61,1a35.05,35.05,0,0,0-6.79-.58,51.41,51.41,0,0,0-8.49.83c-1.43.24-1.45.29-2.1-1.07a42.17,42.17,0,0,0-8-11.52,44.35,44.35,0,0,0-23-12.71,29.76,29.76,0,0,0-7.92-.82c-1.06.07-1.36-.35-1.25-1.31,0-.31,0-.63,0-.95V267.23c0-2.17,0-2.17,2.25-2.17h84.33a12,12,0,0,0,1.34,0C230.71,265,230.93,265.41,230.85,266.19Zm88.71,126a41.56,41.56,0,0,0-3.86-3.47,43.47,43.47,0,0,0-22.58-9.19c-1.71-.18-3.41-.21-5.12-.23s-1.61,0-2.11-1.47a43.66,43.66,0,0,0-11.08-17.54,44.18,44.18,0,0,0-25.73-12.44c-1.45-.18-2.9-.23-4.35-.34-.64,0-.94-.23-.91-.88s0-1,0-1.53V254.66c0-.38,0-.76,0-1.14,0-1.41,0-1.43-1.48-1.44h-47.9c-1.76,0-1.64,0-1.64-1.68V139.34c0-1.88,0-1.64,1.87-1.64H330.16c.45,0,.89,0,1.34,0,.71-.06,1.08.19,1,1,0,.38,0,.76,0,1.14v91a10.84,10.84,0,0,0,0,1.14c.09.87-.34,1.06-1.13,1-3.37,0-6.74,0-10.11,0-1,0-1.13-.45-1.12-1.26,0-2.93,0-5.85,0-8.78v-20c0-1.61,0-1.62-1.67-1.62H207.05c-1.9,0-1.65.05-1.65,1.65v34.92c0,1.81-.23,1.73,1.76,1.73H311.74c.31,0,.61,0,1.13.06-14.35,38.06-33.07,73.73-55.58,108h60.22a7.22,7.22,0,0,0,1.14,0c1-.15,1.28.32,1.28,1.29q0,21.27,0,42.55C319.91,391.68,320,392,319.56,392.2ZM307.21,225.43c0,.9-.22,1.32-1.17,1.21a11.8,11.8,0,0,0-1.33,0H220.35c-.44,0-.89,0-1.33,0s-.78-.23-.78-.79c0-3.62,0-7.25,0-10.87,0-.78.33-1,1-.95a11,11,0,0,0,1.15,0h85.12c1.74,0,1.66-.06,1.65,1.66C307.18,219,307.16,222.19,307.21,225.43ZM396.26,428.9c0,1.41,0,1.43-1.48,1.43H335c-.45,0-.89,0-1.34,0-.62,0-1-.16-.94-.84,0-.45,0-.89,0-1.34V388.85q0-19.56,0-39.13c0-2.46-.22-2.08,2.16-2.08,7.51,0,15,0,22.52,0,1.7,0,1.71,0,2,1.71a59.75,59.75,0,0,0,14.08,29.08,40.62,40.62,0,0,0,21.5,12.95c1,.22,1.21.55,1.2,1.46Q396.24,410.86,396.26,428.9Z"/><path class="f47d75da-b727-4e3e-8016-efc7e475c288" d="M166.25,303c-3.56,0-7.12,0-10.68,0-.85,0-1.1.3-1.08,1.1,0,1.78,0,3.56,0,5.34s0,3.69,0,5.54c0,.67.1,1,.92,1,3.69,0,7.38,0,11.07,0,.7,0,1-.19,1-1,0-3.63,0-7.25,0-10.88C167.51,303.14,167.11,303,166.25,303Z"/><path class="f47d75da-b727-4e3e-8016-efc7e475c288" d="M192.8,309.59c0-1.85,0-3.69,0-5.53,0-.81-.24-1.11-1.08-1.1-3.56,0-7.13,0-10.69,0-.86,0-1.25.18-1.24,1.15q.07,5.36,0,10.69c0,1,.34,1.18,1.21,1.17,3.57,0,7.13-.06,10.69,0,1,0,1.14-.4,1.12-1.24C192.76,313,192.8,311.31,192.8,309.59Z"/><path class="f47d75da-b727-4e3e-8016-efc7e475c288" d="M217,303c-3.49,0-7,0-10.47,0-1,0-1.18.35-1.17,1.23,0,3.55.05,7.11,0,10.66,0,1,.43,1.14,1.25,1.12,1.78,0,3.56,0,5.33,0s3.56,0,5.34,0c.74,0,1-.28,1-1,0-3.61,0-7.23,0-10.85C218.28,303.13,217.87,303,217,303Z"/><path class="f47d75da-b727-4e3e-8016-efc7e475c288" d="M166.28,328.41q-5.34,0-10.68,0c-.78,0-1.13.16-1.12,1q.06,5.44,0,10.88c0,.81.25,1.1,1.08,1.1,3.57,0,7.13-.06,10.69,0,1.09,0,1.26-.44,1.23-1.36-.05-1.71,0-3.43,0-5.15s-.06-3.56,0-5.34C167.54,328.6,167.15,328.4,166.28,328.41Z"/><path class="f47d75da-b727-4e3e-8016-efc7e475c288" d="M191.79,328.4c-3.63.05-7.25,0-10.88,0-.79,0-1.11.22-1.11,1.07,0,3.63,0,7.25,0,10.88,0,.88.37,1.06,1.14,1.05,3.63,0,7.25,0,10.88,0,.78,0,1-.3,1-1,0-1.85,0-3.69,0-5.54s0-3.56,0-5.34C192.83,328.77,192.68,328.39,191.79,328.4Z"/><path class="f47d75da-b727-4e3e-8016-efc7e475c288" d="M217.18,328.41c-3.56,0-7.11,0-10.66,0-1,0-1.17.39-1.14,1.24.05,1.71,0,3.43,0,5.14s0,3.68,0,5.52c0,.81.25,1.12,1.09,1.11,3.55,0,7.11,0,10.66,0,.78,0,1.14-.19,1.13-1.06,0-3.62,0-7.23,0-10.85C218.27,328.67,218,328.4,217.18,328.41Z"/><path class="f47d75da-b727-4e3e-8016-efc7e475c288" d="M155.55,290.4c1.77-.06,3.55,0,5.33,0s3.68,0,5.53,0c.81,0,1.09-.26,1.08-1.09,0-3.56,0-7.11,0-10.67,0-.77-.29-1-1-1-3.68,0-7.36,0-11.05,0-.76,0-1,.28-.95,1,0,3.55,0,7.11,0,10.67C154.48,290.12,154.7,290.42,155.55,290.4Z"/><path class="f47d75da-b727-4e3e-8016-efc7e475c288" d="M191.77,277.65c-3.62,0-7.24,0-10.86,0-.79,0-1.11.22-1.1,1.08,0,3.55,0,7.11,0,10.66,0,.74.23,1,1,1,1.84,0,3.68,0,5.52,0s3.69,0,5.53,0c.74,0,1-.24,1-1q0-5.43,0-10.86C192.83,277.72,192.43,277.64,191.77,277.65Z"/><path class="f47d75da-b727-4e3e-8016-efc7e475c288" d="M206.46,290.39c3.56,0,7.12,0,10.68,0,1,0,1.14-.43,1.12-1.26,0-1.72,0-3.44,0-5.15s0-3.56,0-5.34c0-.74-.24-1-1-1-3.63,0-7.25,0-10.88,0-.91,0-1,.41-1,1.16,0,3.5,0,7,0,10.49C205.37,290.11,205.64,290.4,206.46,290.39Z"/><path class="f47d75da-b727-4e3e-8016-efc7e475c288" d="M104.36,316c3.75,0,7.51,0,11.26,0,.7,0,.85-.29.84-.91,0-1.85,0-3.69,0-5.54s0-3.68,0-5.53c0-.68-.17-1-1-1q-5.53,0-11.07,0c-.77,0-1,.33-1,1q0,5.53,0,11.06C103.46,315.73,103.72,316,104.36,316Z"/><path class="f47d75da-b727-4e3e-8016-efc7e475c288" d="M115.53,328.41c-3.69,0-7.38,0-11.07,0-.71,0-1,.21-1,1,.05,1.84,0,3.69,0,5.53s0,3.56,0,5.34c0,.78.19,1.15,1.06,1.14,3.63,0,7.25,0,10.88,0,.86,0,1.07-.33,1.07-1.12q0-5.43,0-10.88C116.47,328.73,116.32,328.4,115.53,328.41Z"/><path class="ad690cd5-751c-457f-8057-02bdc48e1a3c" d="M276.08,393.88c2.9-.23,5.65-1,8.47-1.37a29.82,29.82,0,0,1,16.86,2.71c9.58,4.55,15.45,12.11,17.8,22.43.88,3.88.68,7.82.69,11.76,0,.61-.25.95-.9.94s-1,0-1.53,0H68.78c-2.61,0-2.77.4-1.86-2.57a31.6,31.6,0,0,1,15.61-19.12,33.12,33.12,0,0,1,11.76-3.56c4-.51,7.82.47,11.73.69,1,0,2,.09,3,.22s1.22-.32,1.2-1.22c0-2.28,0-4.58,0-6.87a30.14,30.14,0,0,1,6.52-18.71,31.5,31.5,0,0,1,44.61-5.59A32,32,0,0,1,172.91,392c.28,1.17.57,2.34.89,3.5.49,1.76.51,1.76,2.13,1.12,1.42-.56,2.84-1.11,4.24-1.71a31.91,31.91,0,0,1,14.49-2.58A34.79,34.79,0,0,1,205,394.71c1.61.6,3.22,1.16,4.84,1.73,1.47.52,1.43.5,1.61-1.12a88.69,88.69,0,0,1,1.1-9.05c2.83-13.11,10.77-21.56,23.7-24.86,10.41-2.67,19.89-.09,28.07,6.88A31.33,31.33,0,0,1,275.18,389c.16,1.32.39,2.63.61,3.94A6.7,6.7,0,0,0,276.08,393.88Z"/><path class="ad690cd5-751c-457f-8057-02bdc48e1a3c" d="M395.15,347.54c-2-3.18-3.76-6.09-5.59-9q-7.37-11.58-14.14-23.51a2,2,0,0,1-.23-1.94c3.52-8.34,8.51-15.45,16.68-19.89a22.1,22.1,0,0,1,11-2.79,24.32,24.32,0,0,1,14.63,5.24,39.52,39.52,0,0,1,12,15.53,56.28,56.28,0,0,1,4.64,18.15c1.1,12.31-1.07,23.89-7.46,34.55a33,33,0,0,1-12.76,12.52,22.48,22.48,0,0,1-20.17,1c-5.94-2.5-10.35-6.78-13.93-12a50.66,50.66,0,0,1-7-16c-.08-.31-.12-.62-.18-.93-.09-.54.1-.87.69-.88l1.52,0h19.09C394.17,347.62,394.49,347.58,395.15,347.54Z"/></svg>